<svg height="512" viewBox="0 0 74 74" width="512" xmlns="http://www.w3.org/2000/svg"><g id="color_line" data-name="color line"><path d="m69.17 7.94v59.39a3.672 3.672 0 0 1 -3.67 3.67h-40.34v-66.72h40.34a3.67 3.67 0 0 1 3.67 3.66z" fill="#eeefee"/><path d="m25.16 4.28v66.72h-12.29a3.664 3.664 0 0 1 -3.66-3.67v-59.39a3.662 3.662 0 0 1 3.66-3.66z" fill="#9297ab"/><path d="m69.17 7.94v59.39a3.681 3.681 0 0 1 -3 3.61v-59.47a3.67 3.67 0 0 0 -3.67-3.66h-37.34v-3.53h40.34a3.67 3.67 0 0 1 3.67 3.66z" fill="#e1e6e9"/><path d="m25.16 4.28v3.53h-15.29a3.518 3.518 0 0 0 -.66.06 3.66 3.66 0 0 1 3.66-3.59z" fill="#84879c"/><path d="m13.98 13.731h-9.089a.5.5 0 1 1 0-1h9.09a.5.5 0 0 1 0 1z" fill="#323c6b"/><path d="m13.98 25.935h-9.089a.5.5 0 0 1 0-1h9.09a.5.5 0 0 1 0 1z" fill="#323c6b"/><path d="m13.98 38.139h-9.089a.5.5 0 0 1 0-1h9.09a.5.5 0 0 1 0 1z" fill="#323c6b"/><path d="m13.98 50.342h-9.089a.5.5 0 0 1 0-1h9.09a.5.5 0 0 1 0 1z" fill="#323c6b"/><path d="m13.98 62.546h-9.089a.5.5 0 0 1 0-1h9.09a.5.5 0 0 1 0 1z" fill="#323c6b"/><path d="m40.117 19.692c0 4.46 2.751 6.931 6.147 6.931s6.143-2.471 6.143-6.931v-.477c0-4.46-2.751-6.931-6.143-6.931s-6.147 2.471-6.147 6.931z" fill="#89c5cd"/><path d="m46.264 27.123c-3.976 0-6.646-2.986-6.646-7.431v-.478c0-4.444 2.671-7.431 6.646-7.431s6.643 2.986 6.643 7.431v.478c-.001 4.445-2.671 7.431-6.643 7.431zm0-14.339c-3.377 0-5.646 2.584-5.646 6.431v.478c0 3.846 2.27 6.431 5.646 6.431s5.643-2.584 5.643-6.431v-.478c-.001-3.846-2.268-6.431-5.643-6.431z" fill="#323c6b"/><path d="m57.707 41.167a2.354 2.354 0 0 0 2.354-2.354v-1.285c0-5.159-4.613-8.989-9.194-9.475a6.848 6.848 0 0 1 -9.2 0c-4.581.486-9.194 4.316-9.194 9.475v1.285a2.354 2.354 0 0 0 2.354 2.354z" fill="#89c5cd"/><g fill="#323c6b"><path d="m57.707 41.667h-22.886a2.857 2.857 0 0 1 -2.854-2.854v-1.285c0-5.527 5-9.48 9.642-9.972a.5.5 0 0 1 .4.137 6.35 6.35 0 0 0 8.512 0 .494.494 0 0 1 .4-.137c4.637.492 9.641 4.445 9.641 9.972v1.285a2.857 2.857 0 0 1 -2.855 2.854zm-16.216-13.09c-4.143.546-8.523 4.067-8.523 8.951v1.285a1.855 1.855 0 0 0 1.854 1.854h22.885a1.855 1.855 0 0 0 1.854-1.854v-1.285c0-4.884-4.381-8.4-8.522-8.951a7.374 7.374 0 0 1 -9.547 0z"/><path d="m60.737 49.354h-28.946a.5.5 0 1 1 0-1h28.946a.5.5 0 0 1 0 1z"/><path d="m60.737 58.5h-28.946a.5.5 0 0 1 0-1h28.946a.5.5 0 0 1 0 1z"/><path d="m72.109 63.9a.5.5 0 0 1 -.5-.5v-.858a.5.5 0 0 1 1 0v.858a.5.5 0 0 1 -.5.5z"/><path d="m29.1 1.833h-.9a.5.5 0 0 1 0-1h.9a.5.5 0 0 1 0 1z"/><path d="m41.076 1.833h-9.776a.5.5 0 0 1 0-1h9.771a.5.5 0 0 1 0 1z"/><path d="m72.109 60.707a.5.5 0 0 1 -.5-.5v-8.586a.5.5 0 0 1 1 0v8.585a.5.5 0 0 1 -.5.501z"/><path d="m65.5 71.5h-40.34a.5.5 0 0 1 -.5-.5v-66.72a.5.5 0 0 1 .5-.5h40.34a4.17 4.17 0 0 1 4.17 4.16v59.39a4.175 4.175 0 0 1 -4.17 4.17zm-39.84-1h39.84a3.173 3.173 0 0 0 3.17-3.17v-59.39a3.168 3.168 0 0 0 -3.17-3.16h-39.84z"/><path d="m25.16 71.5h-12.29a4.17 4.17 0 0 1 -4.16-4.17v-59.39a4.165 4.165 0 0 1 4.16-4.16h12.29a.5.5 0 0 1 .5.5v66.72a.5.5 0 0 1 -.5.5zm-12.29-66.72a3.164 3.164 0 0 0 -3.16 3.16v59.39a3.169 3.169 0 0 0 3.16 3.17h11.79v-65.72z"/></g><path d="m21.974 29.74-.05-8.532a.6.6 0 1 1 1.2 0l.05 8.532a.6.6 0 1 1 -1.2 0z" fill="#fff"/><path d="m21.951 32.134v-.256a.6.6 0 1 1 1.2 0v.256a.6.6 0 1 1 -1.2 0z" fill="#fff"/></g></svg>