<?xml version="1.0" encoding="UTF-8" standalone="no"?>
<!-- Generator: Adobe Illustrator 19.1.0, SVG Export Plug-In . SVG Version: 6.00 Build 0)  -->

<svg
   xmlns:dc="http://purl.org/dc/elements/1.1/"
   xmlns:cc="http://creativecommons.org/ns#"
   xmlns:rdf="http://www.w3.org/1999/02/22-rdf-syntax-ns#"
   xmlns:svg="http://www.w3.org/2000/svg"
   xmlns="http://www.w3.org/2000/svg"
   xmlns:sodipodi="http://sodipodi.sourceforge.net/DTD/sodipodi-0.dtd"
   xmlns:inkscape="http://www.inkscape.org/namespaces/inkscape"
   version="1.1"
   x="0px"
   y="0px"
   viewBox="0 0 64 64"
   style="enable-background:new 0 0 64 64;"
   xml:space="preserve"
   id="svg2"
   inkscape:version="0.91 r13725"
   sodipodi:docname="icono-dashboard.svg"><metadata
     id="metadata88"><rdf:RDF><cc:Work
         rdf:about=""><dc:format>image/svg+xml</dc:format><dc:type
           rdf:resource="http://purl.org/dc/dcmitype/StillImage" /></cc:Work></rdf:RDF></metadata><defs
     id="defs86" /><sodipodi:namedview
     pagecolor="#ffffff"
     bordercolor="#666666"
     borderopacity="1"
     objecttolerance="10"
     gridtolerance="10"
     guidetolerance="10"
     inkscape:pageopacity="0"
     inkscape:pageshadow="2"
     inkscape:window-width="1855"
     inkscape:window-height="1056"
     id="namedview84"
     showgrid="false"
     inkscape:zoom="3.6875"
     inkscape:cx="32"
     inkscape:cy="32"
     inkscape:window-x="1985"
     inkscape:window-y="24"
     inkscape:window-maximized="1"
     inkscape:current-layer="svg2" /><style
     type="text/css"
     id="style4">
	.st0{fill:#4F5D73;}
	.st1{fill:#E0E0D1;}
	.st2{opacity:0.2;}
	.st3{fill:#231F20;}
	.st4{fill:#C75C5C;}
	.st5{fill:#FFFFFF;}
	.st6{fill:#F5CF87;}
</style><g
     id="Layer_1"
     transform="matrix(0.86440678,0,0,0.86864407,4.8813559,2.338983)"><g
       id="g7"><circle
         class="st0"
         cx="32"
         cy="32"
         r="32"
         id="circle9"
         style="fill:#4f5d73" /></g><g
       id="g11"><g
         id="g13"><g
           id="g15"><path
             class="st1"
             d="m 47.7,40.6 c 0.2,-0.4 0.6,-0.6 1,-0.7 0.4,-0.1 0.9,-0.1 1.4,0.1 l 2.5,1.2 c 0.5,0.2 0.8,0.6 0.9,1.1 0.2,0.5 0.1,1.1 -0.2,1.6 -0.3,0.5 -0.8,0.9 -1.2,1 -0.5,0.1 -1,0 -1.4,-0.3 L 48.4,43 C 48,42.7 47.7,42.3 47.6,41.9 47.5,41.4 47.5,41 47.7,40.6 Z"
             id="path17"
             inkscape:connector-curvature="0"
             style="fill:#e0e0d1" /></g></g><g
         id="g19"><g
           id="g21"><path
             class="st1"
             d="m 16.4,40.8 c 0.5,0.7 0.1,1.8 -0.7,2.4 l -2.3,1.6 c -0.9,0.6 -2,0.3 -2.7,-0.7 -0.6,-1 -0.2,-2.3 0.7,-2.7 l 2.5,-1.2 c 1.1,-0.4 2.1,-0.1 2.5,0.6 z"
             id="path23"
             inkscape:connector-curvature="0"
             style="fill:#e0e0d1" /></g></g><g
         id="g25"><g
           id="g27"><path
             class="st1"
             d="m 14,31.8 c 0,0.9 -0.7,1.6 -1.8,1.7 l -2.8,0.3 c -1,0.1 -2,-0.8 -2,-2 0,-1.2 0.9,-2.1 1.9,-2 l 2.8,0.2 c 1.1,0.2 1.9,0.9 1.9,1.8 z"
             id="path29"
             inkscape:connector-curvature="0"
             style="fill:#e0e0d1" /></g></g><g
         id="g31"><g
           id="g33"><path
             class="st1"
             d="m 16.3,22.7 c -0.2,0.4 -0.6,0.6 -1,0.7 -0.4,0.1 -0.9,0.1 -1.4,-0.1 l -2.5,-1.2 c -0.5,-0.2 -0.8,-0.6 -0.9,-1.1 -0.2,-0.5 -0.1,-1.1 0.2,-1.6 0.3,-0.5 0.8,-0.9 1.2,-1 0.5,-0.1 1,0 1.4,0.3 l 2.3,1.6 c 0.4,0.3 0.7,0.7 0.8,1.1 0.2,0.5 0.2,1 -0.1,1.3 z"
             id="path35"
             inkscape:connector-curvature="0"
             style="fill:#e0e0d1" /></g></g><g
         id="g37"><g
           id="g39"><path
             class="st1"
             d="m 22.9,16.1 c -0.7,0.5 -1.8,0.1 -2.4,-0.7 l -1.6,-2.3 c -0.6,-0.9 -0.3,-2 0.7,-2.7 1,-0.6 2.3,-0.2 2.7,0.7 l 1.2,2.5 c 0.4,1 0.1,2 -0.6,2.5 z"
             id="path41"
             inkscape:connector-curvature="0"
             style="fill:#e0e0d1" /></g></g><g
         id="g43"><g
           id="g45"><path
             class="st1"
             d="m 31.9,13.6 c -0.9,0 -1.6,-0.7 -1.7,-1.8 L 29.9,9 c -0.1,-1 0.8,-2 2,-2 1.2,0 2.1,0.9 2,1.9 l -0.2,2.8 c -0.2,1.1 -0.9,1.9 -1.8,1.9 z"
             id="path47"
             inkscape:connector-curvature="0"
             style="fill:#e0e0d1" /></g></g><g
         id="g49"><g
           id="g51"><path
             class="st1"
             d="m 41,16 c -0.4,-0.2 -0.6,-0.6 -0.7,-1 -0.1,-0.4 -0.1,-0.9 0.1,-1.4 l 1.2,-2.5 c 0.2,-0.5 0.6,-0.8 1.1,-0.9 0.5,-0.2 1.1,-0.1 1.6,0.2 0.5,0.3 0.9,0.8 1,1.2 0.1,0.5 0,1 -0.3,1.4 l -1.6,2.3 c -0.3,0.4 -0.7,0.7 -1.1,0.8 -0.5,0.1 -1,0.1 -1.3,-0.1 z"
             id="path53"
             inkscape:connector-curvature="0"
             style="fill:#e0e0d1" /></g></g><g
         id="g55"><g
           id="g57"><path
             class="st1"
             d="m 47.6,22.5 c -0.5,-0.7 -0.1,-1.8 0.7,-2.4 l 2.3,-1.6 c 0.9,-0.6 2,-0.3 2.7,0.7 0.6,1 0.2,2.3 -0.7,2.7 L 50,23.1 c -0.9,0.5 -2,0.2 -2.4,-0.6 z"
             id="path59"
             inkscape:connector-curvature="0"
             style="fill:#e0e0d1" /></g></g><g
         id="g61"><g
           id="g63"><path
             class="st1"
             d="m 50.1,31.5 c 0,-0.9 0.7,-1.6 1.8,-1.7 l 2.8,-0.3 c 1,-0.1 2,0.8 2,2 0,1.2 -0.9,2.1 -1.9,2 L 52,33.3 c -1.1,-0.1 -1.9,-0.9 -1.9,-1.8 z"
             id="path65"
             inkscape:connector-curvature="0"
             style="fill:#e0e0d1" /></g></g></g><g
       class="st2"
       id="g67"
       style="opacity:0.2"><path
         class="st3"
         d="M 41.6,24.4 C 41.2,24 40.5,23.9 40.1,24.2 l -4.7,2.9 -3.1,1.9 c 0,0 0,0 0,0 -0.1,0 -0.2,0 -0.3,0 -2.8,0 -5,2.2 -5,5 0,0.1 0,0.2 0,0.3 0.2,2.5 2.1,4.5 4.6,4.6 0.1,0 0.2,0 0.3,0 2.8,0 5,-2.2 5,-5 0,-0.1 0,-0.2 0,-0.3 0,0 0,0 0,0 l 1.9,-3.1 2.9,-4.7 c 0.4,-0.4 0.3,-1 -0.1,-1.4 z"
         id="path69"
         inkscape:connector-curvature="0"
         style="fill:#231f20" /></g><g
       id="g71"><path
         class="st4"
         d="M 41.6,22.4 C 41.2,22 40.5,21.9 40.1,22.2 l -4.7,2.9 -3.1,1.9 c 0,0 0,0 0,0 -0.1,0 -0.2,0 -0.3,0 -2.8,0 -5,2.2 -5,5 0,0.1 0,0.2 0,0.3 0.2,2.5 2.1,4.5 4.6,4.6 0.1,0 0.2,0 0.3,0 2.8,0 5,-2.2 5,-5 0,-0.1 0,-0.2 0,-0.3 0,0 0,0 0,0 l 1.9,-3.1 2.9,-4.7 c 0.4,-0.4 0.3,-1 -0.1,-1.4 z"
         id="path73"
         inkscape:connector-curvature="0"
         style="fill:#c75c5c" /></g><g
       id="g75"><circle
         class="st5"
         cx="32"
         cy="32"
         r="5"
         id="circle77"
         style="fill:#ffffff" /></g><g
       id="g79"><path
         class="st6"
         d="m 40,49 c 0,1.7 -1.3,3 -3,3 l -10,0 c -1.7,0 -3,-1.3 -3,-3 l 0,-2 c 0,-1.7 1.3,-3 3,-3 l 10,0 c 1.7,0 3,1.3 3,3 l 0,2 z"
         id="path81"
         inkscape:connector-curvature="0"
         style="fill:#f5cf87" /></g></g><g
     id="Layer_2" /></svg>